# AST/ASF file generated using VICON BodyLanguage
# -----------------------------------------------
:version 1.10
:name VICON
:units
  mass 1.0
  length 0.45
  angle deg
:documentation
   .ast/.asf automatically generated from VICON data using
   VICON BodyBuilder and BodyLanguage model FoxedUp or BRILLIANT.MOD
:root
   order TX TY TZ RX RY RZ
   axis XYZ
   position 0 0 0  
   orientation 0 0 0 
:bonedata
  begin
     id 1 
     name lhipjoint
     direction 0.62366 -0.717238 0.310833 
     length 2.53602 
     axis 0 0 0  XYZ
  end
  begin
     id 2 
     name lfemur
     direction 0.34202 -0.939693 0  
     length 7.40817  
     axis 0 0 20  XYZ
    dof rx ry rz
    limits (-160.0 20.0)
           (-70.0 70.0)
           (-60.0 70.0)
  end
  begin
     id 3 
     name ltibia
     direction 0.34202 -0.939693 0   
     length 7.7045   
     axis 0 0 20   XYZ
    dof rx
    limits (-10.0 170.0)
  end
  begin
     id 4 
     name lfoot
     direction 0.0673888 -0.185149 0.980397   
     length 2.09456   
     axis -90 7.62852e-016 20   XYZ
    dof rx rz
    limits (-45.0 90.0)
           (-70.0 20.0)
  end
  begin
     id 5 
     name ltoes
     direction 1.53575e-011 -4.21994e-011 1   
     length 1.05543   
     axis -90 7.62852e-016 20   XYZ
    dof rx
    limits (-90.0 20.0)
  end
  begin
     id 6 
     name rhipjoint
     direction -0.489018 -0.800347 0.346851   
     length 2.27268  
     axis 0 0 0  XYZ 
  end
  begin
     id 7 
     name rfemur
     direction -0.34202 -0.939693 0   
     length 7.55487   
     axis 0 0 -20   XYZ
    dof rx ry rz
    limits (-160.0 20.0)
           (-70.0 70.0)
           (-70.0 60.0)
  end
  begin
     id 8 
     name rtibia
     direction -0.34202 -0.939693 0   
     length 7.78969   
     axis 0 0 -20   XYZ
    dof rx
    limits (-10.0 170.0)
 end
 begin
     id 9 
     name rfoot
     direction -0.0859318 -0.236096 0.967923   
     length 2.19143  
     axis -90 -7.62852e-016 -20   XYZ
    dof rx rz
    limits (-45.0 90.0)
           (-20.0 70.0)
  end
  begin
     id 10 
     name rtoes
     direction -1.53538e-011 -4.21989e-011 1   
     length 1.09845   
     axis -90 -7.62852e-016 -20   XYZ
    dof rx
    limits (-90.0 20.0)
  end
  begin
     id 11 
     name lowerback
     direction -0.00762546 0.998978 -0.0445553   
     length 1.98161   
     axis 0 0 0   XYZ
    dof rx ry rz
    limits (-20.0 45.0)
           (-30.0 30.0)
           (-30.0 30.0)
  end
  begin
     id 12 
     name upperback
     direction 0.0422361 0.998867 -0.0219156   
     length 1.97558   
     axis 0 0 0   XYZ
    dof rx ry rz
    limits (-20.0 45.0)
           (-30.0 30.0)
           (-30.0 30.0)
  end
  begin
     id 13 
     name thorax
     direction 0.0442465 0.999021 7.47603e-005   
     length 1.97799   
     axis 0 0 0   XYZ
    dof rx ry rz
    limits (-20.0 45.0)
           (-30.0 30.0)
           (-30.0 30.0)
  end
  begin
     id 14 
     name lowerneck
     direction 0.00312169 0.984641 0.174564   
     length 1.78995   
     axis 0 0 0   XYZ
    dof rx ry rz
    limits (-20.0 45.0)
           (-30.0 30.0)
           (-30.0 30.0)
  end
  begin
     id 15 
     name upperneck
     direction -0.0383028 0.985255 -0.166749   
     length 1.83053   
     axis 0 0 0   XYZ
    dof rx ry rz
    limits (-20.0 45.0)
           (-30.0 30.0)
           (-30.0 30.0)
  end
  begin
     id 16
     name head
     direction -0.0129546 0.997059 -0.0755386  
     length 1.84088  
     axis 0 0 0   XYZ
    dof rx ry rz
    limits (-20.0 45.0)
           (-30.0 30.0)
           (-30.0 30.0)
  end
  begin
     id 17 
     name lclavicle
     direction 0.912857 0.370519 -0.171488  
     length 3.51279  
     axis 0 0 0   XYZ
    dof ry rz
    limits (-20.0 10.0)
           (0.0 20.0)
  end
  begin
     id 18 
     name lhumerus
     direction 1 -4.48962e-011 3.64361e-027   
     length 4.95663   
     axis 180 -30 -90   XYZ
    dof rx ry rz
    limits (-60.0 90.0)
           (-90.0 90.0)
           (-90.0 90.0)
  end
  begin
     id 19
     name lradius
     direction 1 -4.48974e-011 5.97202e-027   
     length 3.38177   
     axis 180 -30 -90   XYZ
    dof rx
    limits (-10.0 170.0)
  end
  begin
     id 20
     name lwrist
     direction 1 -4.4896e-011 9.83288e-027   
     length 1.69088   
     axis -9.31221e-015 90 90   XYZ
    dof ry
    limits (-180.0 0.0)
 end
  begin
     id 21 
     name lhand
     direction 1 -4.4902e-011 1.96551e-026   
     length 0.662909   
     axis -1.25475e-014 90 90   XYZ
    dof rx rz
    limits (-90.0 90.0)
           (-45.0 45.0)
  end
  begin
     id 22 
     name lfingers
     direction 1 -4.48971e-011 3.93277e-026   
     length 0.534454   
     axis -2.50945e-014 90 90   XYZ
    dof rx
    limits (0.0 90.0)
  end
  begin
     id 23
     name lthumb
     direction 0.707107 -6.34933e-011 0.707107   
     length 0.767373   
     axis -90 45 -4.80359e-014   XYZ
    dof rx rz
    limits (-45.0 45.0)
           (-45.0 45.0)
  end
  begin
     id 24 
     name rclavicle
     direction -0.900919 0.395364 -0.178976   
     length 3.40627  
     axis 0 0 0   XYZ 
    dof ry rz
    limits (-10.0 20.0)
           (-20.0 0.0)
  end
  begin
     id 25 
     name rhumerus
     direction -1 -4.48969e-011 1.03875e-027  
     length 5.08365   
     axis 180 30 90   XYZ
    dof rx ry rz
    limits (-90.0 60.0)
           (-90.0 90.0)
           (-90.0 90.0)
  end
  begin
     id 26 
     name rradius
     direction -1 -4.48951e-011 5.02733e-027   
     length 3.35984   
     axis 180 30 90   XYZ
    dof rx
    limits (-10.0 170.0)
  end
  begin
     id 27 
     name rwrist
     direction -1 -4.49011e-011 9.82828e-027   
     length 1.67992   
     axis -9.31221e-015 -90 -90   XYZ
    dof ry
    limits (-180.0 0.0)
  end
  begin
     id 28
     name rhand
     direction -1 -4.48894e-011 1.96774e-026   
     length 0.820764   
     axis -1.25475e-014 -90 -90   XYZ
    dof rx rz
    limits (-90.0 90.0)
           (-45.0 45.0)
  end
  begin
     id 29
     name rfingers
     direction -1 -4.49095e-011 3.92833e-026   
     length 0.661721   
     axis -2.50945e-014 -90 -90   XYZ
    dof rx
    limits (0.0 90.0)
  end
  begin
     id 30
     name rthumb
     direction -0.707107 -6.34881e-011 0.707107   
     length 0.950103   
     axis -90 -45 4.80359e-014   XYZ
    dof rx rz
    limits (-45.0 45.0)
           (-45.0 45.0)
  end
:hierarchy
  begin
    root lhipjoint rhipjoint lowerback
    lhipjoint lfemur
    lfemur ltibia
    ltibia lfoot
    lfoot ltoes
    rhipjoint rfemur
    rfemur rtibia
    rtibia rfoot
    rfoot rtoes
    lowerback upperback
    upperback thorax
    thorax lowerneck lclavicle rclavicle
    lowerneck upperneck
    upperneck head
    lclavicle lhumerus
    lhumerus lradius
    lradius lwrist
    lwrist lhand lthumb
    lhand lfingers
    rclavicle rhumerus
    rhumerus rradius
    rradius rwrist
    rwrist rhand rthumb
    rhand rfingers
  end

#!OML:ASF I:\golf\golf\golf 2\Subject 1\2002-09-07\Subject1.ASF
:FULLY-SPECIFIED
:DEGREES
47
root -6.66012 17.6848 -0.665265 -101.218 86.8558 -115.602
lowerback 4.43503 2.57664 -1.5734
upperback 4.10846 3.51214 4.78057
thorax 1.36192 1.73407 5.71709
lowerneck -15.0238 -2.40822 1.10219
upperneck 39.4354 0.117367 -5.19319
head 16.7987 0.0996834 -2.31825
rclavicle 2.42517e-014 2.62396e-014
rhumerus -5.73648 -5.24251 -101.539
rradius 21.8797
rwrist -42.5471
rhand -13.2479 -5.77781
rfingers 7.12502
rthumb 12.8542 -35.362
lclavicle 2.42517e-014 2.62396e-014
lhumerus -10.1739 -47.3942 110.832
lradius 25.1449
lwrist 34.4794
lhand -15.686 72.5934
lfingers 7.12502
lthumb -169.497 77.689
rfemur -30.2576 -5.22613 13.103
rtibia 33.107
rfoot -11.1685 -7.16878
rtoes -13.197
lfemur -30.6074 7.72236 -10.7261
ltibia 33.2828
lfoot -13.2832 -4.23056
ltoes -17.3219
48
root -6.6599 17.685 -0.666113 -101.086 86.7978 -115.481
lowerback 4.40337 2.58213 -1.53114
upperback 4.11539 3.5216 4.81686
thorax 1.38595 1.7394 5.73277
lowerneck -15.0064 -2.41909 1.08155
upperneck 39.3992 0.109106 -5.20764
head 16.7745 0.0904877 -2.32093
rclavicle -2.78299e-014 -5.40694e-014
rhumerus -5.75522 -5.03999 -101.516
rradius 21.9573
rwrist -42.7612
rhand -13.4882 -5.78318
rfingers 7.12502
rthumb 12.6226 -35.3818
lclavicle -2.78299e-014 -5.40694e-014
lhumerus -10.1256 -47.3445 110.843
lradius 25.0662
lwrist 34.3304
lhand -15.6202 72.4023
lfingers 7.12502
lthumb -169.433 77.8833
rfemur -30.2721 -5.23272 13.1737
rtibia 33.1119
rfoot -11.1459 -7.18104
rtoes -13.1035
lfemur -30.6156 7.69186 -10.6546
ltibia 33.2759
lfoot -13.2921 -4.21523
ltoes -17.3235
49
root -6.66072 17.6842 -0.666534 -101.723 86.7984 -116.134
lowerback 4.42939 2.58568 -1.59251
upperback 4.09339 3.52605 4.86337
thorax 1.34209 1.74139 5.8143
lowerneck -15.0294 -2.44248 1.08793
upperneck 39.4231 0.109289 -5.28914
head 16.7935 0.0817196 -2.35964
rclavicle -2.0276e-014 -1.59028e-015
rhumerus -5.7878 -4.93992 -101.459
rradius 21.979
rwrist -42.8244
rhand -13.7116 -5.72039
rfingers 7.12502
rthumb 12.4072 -35.3322
lclavicle -2.0276e-014 -1.59028e-015
lhumerus -10.1188 -47.271 110.922
lradius 24.9917
lwrist 34.1781
lhand -15.4971 72.1475
lfingers 7.12502
lthumb -169.315 78.1442
rfemur -30.2938 -5.23011 13.1566
rtibia 33.1151
rfoot -11.1316 -7.26038
rtoes -13.9895
lfemur -30.6369 7.63617 -10.6661
ltibia 33.266
lfoot -13.2945 -4.18767
ltoes -17.2984
50
root -6.661 17.6841 -0.665899 -102.59 86.8945 -116.986
lowerback 4.47791 2.58023 -1.76659
upperback 4.08349 3.51407 4.88394
thorax 1.29541 1.73251 5.93281
lowerneck -15.0481 -2.4414 1.06053
upperneck 39.4469 0.137143 -5.32025
head 16.8133 0.0857213 -2.36476
rclavicle -1.07344e-014 -4.45278e-014
rhumerus -5.79375 -5.0112 -101.461
rradius 21.9406
rwrist -42.6113
rhand -13.9369 -5.68771
rfingers 7.12502
rthumb 12.1899 -35.3125
lclavicle -1.07344e-014 -4.45278e-014
lhumerus -10.088 -47.201 110.951
lradius 24.9367
lwrist 34.035
lhand -15.3412 72.0087
lfingers 7.12502
lthumb -169.164 78.2908
rfemur -30.2735 -5.18221 13.0234
rtibia 33.1108
rfoot -11.4248 -7.32747
rtoes -13.2337
lfemur -30.6207 7.61284 -10.777
ltibia 33.2617
lfoot -13.2762 -4.23271
ltoes -16.9446
51
root -6.66032 17.6864 -0.665509 -103.346 86.8945 -117.723
lowerback 4.49831 2.57128 -1.76555
upperback 4.08217 3.50229 4.87895
thorax 1.28436 1.72691 5.9264
lowerneck -15.0212 -2.4389 1.0221
upperneck 39.4184 0.12997 -5.27073
head 16.791 0.0831737 -2.33539
rclavicle -2.78299e-015 -1.59028e-015
rhumerus -5.7857 -5.11533 -101.503
rradius 21.9189
rwrist -42.4703
rhand -13.9858 -5.71829
rfingers 7.12502
rthumb 12.1428 -35.3459
lclavicle -2.78299e-015 -1.59028e-015
lhumerus -10.0698 -47.2327 110.928
lradius 24.912
lwrist 33.9404
lhand -15.1766 71.9444
lfingers 7.12502
lthumb -169.006 78.3635
rfemur -30.2308 -5.17582 13.0039
rtibia 33.1069
rfoot -11.2135 -7.32857
rtoes -13.0692
lfemur -30.6039 7.58338 -10.7752
ltibia 33.2574
lfoot -13.2459 -4.32481
ltoes -16.4356
52
root -6.66048 17.688 -0.665223 -103.824 86.8011 -118.199
lowerback 4.50808 2.56816 -1.61693
upperback 4.07243 3.50308 4.86656
thorax 1.27752 1.73096 5.82775
lowerneck -14.9921 -2.43937 1.03183
upperneck 39.388 0.104793 -5.22841
head 16.7653 0.079572 -2.32103
rclavicle -2.46493e-014 4.13472e-014
rhumerus -5.79506 -5.11632 -101.536
rradius 21.9538
rwrist -42.5244
rhand -13.736 -5.79843
rfingers 7.12502
rthumb 12.3837 -35.4116
lclavicle -2.46493e-014 4.13472e-014
lhumerus -10.0902 -47.3601 110.896
lradius 24.8878
lwrist 33.9008
lhand -14.9911 71.857
lfingers 7.12502
lthumb -168.827 78.4605
rfemur -30.2116 -5.1797 13.0811
rtibia 33.1129
rfoot -11.1916 -7.26886
rtoes -11.9295
lfemur -30.6209 7.58669 -10.6895
ltibia 33.2553
lfoot -13.2464 -4.36719
ltoes -16.4199
53
root -6.66074 17.6882 -0.665638 -103.63 86.7267 -118.018
lowerback 4.47633 2.56838 -1.48266
upperback 4.08356 3.50746 4.86136
thorax 1.31393 1.73543 5.74771
lowerneck -14.9942 -2.43212 1.02464
upperneck 39.3556 0.0981755 -5.19369
head 16.7479 0.079007 -2.30443
rclavicle -2.74323e-014 9.54166e-015
rhumerus -5.80351 -4.92576 -101.541
rradius 22.0523
rwrist -42.7458
rhand -13.5101 -5.85276
rfingers 7.12502
rthumb 12.6014 -35.4527
lclavicle -2.74323e-014 9.54166e-015
lhumerus -10.0532 -47.4576 110.824
lradius 24.8283
lwrist 33.8227
lhand -14.9025 71.8039
lfingers 7.12502
lthumb -168.741 78.5183
rfemur -30.2329 -5.19574 13.1639
rtibia 33.1257
rfoot -11.169 -7.26447
rtoes -12.9512
lfemur -30.6546 7.62929 -10.6279
ltibia 33.2686
lfoot -13.2799 -4.34741
ltoes -16.9521
54
root -6.6602 17.6881 -0.666692 -103.736 86.6936 -118.14
lowerback 4.43788 2.58426 -1.38112
upperback 4.09768 3.53098 4.84187
thorax 1.35415 1.74865 5.67091
lowerneck -15.0304 -2.45322 1.02219
upperneck 39.3446 0.0470135 -5.15562
head 16.7482 0.0615349 -2.29646
rclavicle 3.97569e-015 1.74931e-014
rhumerus -5.82107 -4.68455 -101.525
rradius 22.197
rwrist -43.0974
rhand -13.5582 -5.86403
rfingers 7.12502
rthumb 12.5551 -35.4668
lclavicle 3.97569e-015 1.74931e-014
lhumerus -10.0505 -47.6658 110.777
lradius 24.8302
lwrist 33.7821
lhand -14.9882 71.9428
lfingers 7.12502
lthumb -168.824 78.3749
rfemur -30.2641 -5.27384 13.2207
rtibia 33.1448
rfoot -11.3171 -7.26495
rtoes -13.735
lfemur -30.6861 7.67216 -10.6283
ltibia 33.2869
lfoot -13.3254 -4.31104
ltoes -17.6517
55
root -6.66014 17.6863 -0.666961 -104.058 86.7037 -118.477
lowerback 4.41859 2.59067 -1.38573
upperback 4.09087 3.53886 4.83376
thorax 1.3572 1.75238 5.66537
lowerneck -15.0364 -2.46928 1.09341
upperneck 39.3538 0.0204973 -5.20698
head 16.7522 0.0548058 -2.33739
rclavicle 5.1684e-015 -1.59028e-015
rhumerus -5.85589 -4.53555 -101.538
rradius 22.2948
rwrist -43.3683
rhand -13.7934 -5.81513
rfingers 7.12502
rthumb 12.3283 -35.4317
lclavicle 5.1684e-015 -1.59028e-015
lhumerus -10.0406 -47.6897 110.746
lradius 24.7953
lwrist 33.5607
lhand -14.9469 71.9802
lfingers 7.12502
lthumb -168.784 78.3396
rfemur -30.298 -5.31702 13.2121
rtibia 33.1713
rfoot -11.0509 -7.24009
rtoes -13.5184
lfemur -30.7022 7.71819 -10.6804
ltibia 33.29
lfoot -13.3719 -4.23201
ltoes -18.3693
56
root -6.66054 17.6857 -0.666585 -103.821 86.694 -118.252
lowerback 4.41515 2.58282 -1.40893
upperback 4.07136 3.52819 4.85572
thorax 1.33749 1.74698 5.70158
lowerneck -14.9913 -2.4583 1.16321
upperneck 39.3391 0.0509413 -5.29747
head 16.7337 0.0661617 -2.38363
rclavicle -7.15625e-015 -1.27222e-014
rhumerus -5.93028 -4.32766 -101.557
rradius 22.3897
rwrist -43.6197
rhand -14.1433 -5.72676
rfingers 7.12502
rthumb 11.9909 -35.3633
lclavicle -7.15625e-015 -1.27222e-014
lhumerus -9.96712 -47.4334 110.699
lradius 24.6295
lwrist 33.051
lhand -14.6053 71.5909
lfingers 7.12502
lthumb -168.455 78.7471
rfemur -30.3378 -5.33751 13.2389
rtibia 33.1987
rfoot -11.1106 -7.16216
rtoes -11.3862
lfemur -30.7013 7.7057 -10.6491
ltibia 33.2763
lfoot -13.3596 -4.24353
ltoes -18.149
57
root -6.66043 17.6878 -0.665525 -103.614 86.6694 -118.033
lowerback 4.47742 2.59684 -1.43086
upperback 4.03655 3.54842 4.89843
thorax 1.26076 1.75856 5.75353
lowerneck -14.9498 -2.45948 1.13897
upperneck 39.3373 0.0721549 -5.32382
head 16.7238 0.0694255 -2.38609
rclavicle 3.85642e-014 -1.90833e-014
rhumerus -6.05942 -4.11896 -101.518
rradius 22.5302
rwrist -43.8824
rhand -14.4386 -5.67981
rfingers 7.12502
rthumb 11.7062 -35.3327
lclavicle 3.85642e-014 -1.90833e-014
lhumerus -9.97878 -47.3324 110.743
lradius 24.4905
lwrist 32.6716
lhand -14.2643 71.189
lfingers 7.12502
lthumb -168.126 79.1677
rfemur -30.3451 -5.36817 13.294
rtibia 33.2304
rfoot -11.0849 -7.25447
rtoes -13.9303
lfemur -30.6708 7.69505 -10.5848
ltibia 33.2426
lfoot -13.3123 -4.38598
ltoes -17.2646
58
root -6.66029 17.69 -0.664449 -103.985 86.6775 -118.376
lowerback 4.54639 2.59512 -1.4889
upperback 4.02092 3.54614 4.92916
thorax 1.20135 1.75764 5.81489
lowerneck -14.9419 -2.45357 1.10201
upperneck 39.3456 0.0999022 -5.33132
head 16.7285 0.0752661 -2.37781
rclavicle 2.94201e-014 -6.36111e-015
rhumerus -6.16876 -3.8185 -101.493
rradius 22.689
rwrist -44.2742
rhand -14.5988 -5.65606
rfingers 7.12502
rthumb 11.5517 -35.3177
lclavicle 2.94201e-014 -6.36111e-015
lhumerus -9.97555 -47.2982 110.757
lradius 24.401
lwrist 32.3897
lhand -14.0903 71.0944
lfingers 7.12502
lthumb -167.958 79.2721
rfemur -30.3181 -5.36452 13.2814
rtibia 33.2636
rfoot -11.2525 -7.30982
rtoes -15.0515
lfemur -30.6267 7.69687 -10.5928
ltibia 33.1919
lfoot -13.2605 -4.44922
ltoes -17.0171
59
root -6.66077 17.691 -0.664316 -105.008 86.7674 -119.383
lowerback 4.55121 2.58261 -1.54147
upperback 4.03583 3.52591 4.87516
thorax 1.2166 1.7457 5.78916
lowerneck -14.958 -2.45407 1.124
upperneck 39.3599 0.0901014 -5.32504
head 16.7394 0.0752828 -2.3816
rclavicle 4.92986e-014 7.4743e-014
rhumerus -6.25425 -3.31909 -101.525
rradius 22.9247
rwrist -44.9142
rhand -14.786 -5.63002
rfingers 7.12502
rthumb 11.3712 -35.3017
lclavicle 4.92986e-014 7.4743e-014
lhumerus -9.89259 -47.2769 110.633
lradius 24.2814
lwrist 31.9113
lhand -13.8169 70.9553
lfingers 7.12502
lthumb -167.694 79.4268
rfemur -30.3097 -5.36817 13.151
rtibia 33.2988
rfoot -11.1411 -7.21888
rtoes -13.7188
lfemur -30.5945 7.65009 -10.7044
ltibia 33.1378
lfoot -13.2082 -4.44573
ltoes -17.0313
60
root -6.66113 17.6909 -0.663389 -105.936 86.8507 -120.318
lowerback 4.52755 2.60305 -1.55884
upperback 4.03525 3.55011 4.80694
thorax 1.22947 1.75684 5.72721
lowerneck -14.972 -2.49419 1.1385
upperneck 39.4056 0.0207272 -5.29836
head 16.7632 0.0544444 -2.38619
rclavicle -6.75868e-015 1.74931e-014
rhumerus -6.33271 -2.97541 -101.527
rradius 23.1263
rwrist -45.3561
rhand -14.8559 -5.63938
rfingers 7.12502
rthumb 11.3038 -35.3148
lclavicle -6.75868e-015 1.74931e-014
lhumerus -9.87361 -47.5035 110.546
lradius 24.1795
lwrist 31.4626
lhand -13.5064 70.823
lfingers 7.12502
lthumb -167.395 79.5773
rfemur -30.3465 -5.40927 13.0433
rtibia 33.3473
rfoot -11.3252 -7.11242
rtoes -11.0693
lfemur -30.5844 7.61346 -10.7992
ltibia 33.0957
lfoot -13.186 -4.52588
ltoes -16.6589
